<mxfile host="app.diagrams.net" agent="Mozilla/5.0 (Macintosh; Intel Mac OS X 10_15_7) AppleWebKit/537.36 (KHTML, like Gecko) Chrome/134.0.0.0 Safari/537.36" version="26.0.14">
  <diagram name="Page-1" id="RBfOUEZvhtSBYPyheVz0">
    <mxGraphModel dx="1242" dy="702" grid="1" gridSize="10" guides="1" tooltips="1" connect="1" arrows="1" fold="1" page="1" pageScale="1" pageWidth="1100" pageHeight="850" math="0" shadow="0">
      <root>
        <mxCell id="0" />
        <mxCell id="1" parent="0" />
        <mxCell id="RM2zdnVuNPL0BzVuTWzk-3" value="" style="group" vertex="1" connectable="0" parent="1">
          <mxGeometry x="40" y="121" width="170" height="130" as="geometry" />
        </mxCell>
        <mxCell id="RM2zdnVuNPL0BzVuTWzk-2" value="Video Player" style="verticalLabelPosition=bottom;shadow=0;dashed=0;align=center;html=1;verticalAlign=top;strokeWidth=1;shape=mxgraph.mockup.containers.videoPlayer;strokeColor=#666666;strokeColor2=#008cff;strokeColor3=#c4c4c4;textColor=#666666;fillColor2=#008cff;barHeight=30;barPos=20;" vertex="1" parent="RM2zdnVuNPL0BzVuTWzk-3">
          <mxGeometry width="170" height="130" as="geometry" />
        </mxCell>
        <mxCell id="RM2zdnVuNPL0BzVuTWzk-1" value="" style="sketch=0;aspect=fixed;pointerEvents=1;shadow=0;dashed=0;html=1;strokeColor=none;labelPosition=center;verticalLabelPosition=bottom;verticalAlign=top;align=center;fillColor=#00188D;shape=mxgraph.mscae.general.video" vertex="1" parent="RM2zdnVuNPL0BzVuTWzk-3">
          <mxGeometry x="60" y="20" width="49" height="50" as="geometry" />
        </mxCell>
        <mxCell id="RM2zdnVuNPL0BzVuTWzk-8" style="edgeStyle=orthogonalEdgeStyle;rounded=0;orthogonalLoop=1;jettySize=auto;html=1;entryX=0;entryY=0.5;entryDx=0;entryDy=0;" edge="1" parent="1" source="RM2zdnVuNPL0BzVuTWzk-4" target="RM2zdnVuNPL0BzVuTWzk-5">
          <mxGeometry relative="1" as="geometry" />
        </mxCell>
        <mxCell id="RM2zdnVuNPL0BzVuTWzk-9" value="Store Anlytics" style="edgeLabel;html=1;align=center;verticalAlign=middle;resizable=0;points=[];" vertex="1" connectable="0" parent="RM2zdnVuNPL0BzVuTWzk-8">
          <mxGeometry x="0.1131" y="3" relative="1" as="geometry">
            <mxPoint x="1" as="offset" />
          </mxGeometry>
        </mxCell>
        <mxCell id="RM2zdnVuNPL0BzVuTWzk-4" value="ExpressJS App" style="outlineConnect=0;dashed=0;verticalLabelPosition=bottom;verticalAlign=top;align=center;html=1;shape=mxgraph.aws3.android;fillColor=#205E00;gradientColor=none;" vertex="1" parent="1">
          <mxGeometry x="370" y="121" width="110" height="127" as="geometry" />
        </mxCell>
        <mxCell id="RM2zdnVuNPL0BzVuTWzk-22" style="edgeStyle=orthogonalEdgeStyle;rounded=0;orthogonalLoop=1;jettySize=auto;html=1;" edge="1" parent="1" source="RM2zdnVuNPL0BzVuTWzk-5" target="RM2zdnVuNPL0BzVuTWzk-21">
          <mxGeometry relative="1" as="geometry" />
        </mxCell>
        <mxCell id="RM2zdnVuNPL0BzVuTWzk-23" value="Extract data" style="edgeLabel;html=1;align=center;verticalAlign=middle;resizable=0;points=[];" vertex="1" connectable="0" parent="RM2zdnVuNPL0BzVuTWzk-22">
          <mxGeometry relative="1" as="geometry">
            <mxPoint as="offset" />
          </mxGeometry>
        </mxCell>
        <mxCell id="RM2zdnVuNPL0BzVuTWzk-5" value="HarperDB" style="shape=datastore;whiteSpace=wrap;html=1;" vertex="1" parent="1">
          <mxGeometry x="580" y="154.5" width="60" height="60" as="geometry" />
        </mxCell>
        <mxCell id="RM2zdnVuNPL0BzVuTWzk-6" style="edgeStyle=orthogonalEdgeStyle;rounded=0;orthogonalLoop=1;jettySize=auto;html=1;" edge="1" parent="1" source="RM2zdnVuNPL0BzVuTWzk-2" target="RM2zdnVuNPL0BzVuTWzk-4">
          <mxGeometry relative="1" as="geometry" />
        </mxCell>
        <mxCell id="RM2zdnVuNPL0BzVuTWzk-7" value="Post Event information" style="edgeLabel;html=1;align=center;verticalAlign=middle;resizable=0;points=[];" vertex="1" connectable="0" parent="RM2zdnVuNPL0BzVuTWzk-6">
          <mxGeometry x="-0.3573" relative="1" as="geometry">
            <mxPoint x="32" as="offset" />
          </mxGeometry>
        </mxCell>
        <mxCell id="RM2zdnVuNPL0BzVuTWzk-11" style="edgeStyle=orthogonalEdgeStyle;rounded=0;orthogonalLoop=1;jettySize=auto;html=1;entryX=1;entryY=0.5;entryDx=0;entryDy=0;" edge="1" parent="1" source="RM2zdnVuNPL0BzVuTWzk-20" target="RM2zdnVuNPL0BzVuTWzk-5">
          <mxGeometry relative="1" as="geometry">
            <mxPoint x="820" y="186.10000000000002" as="sourcePoint" />
          </mxGeometry>
        </mxCell>
        <mxCell id="RM2zdnVuNPL0BzVuTWzk-12" value="Administer Database" style="edgeLabel;html=1;align=center;verticalAlign=middle;resizable=0;points=[];" vertex="1" connectable="0" parent="RM2zdnVuNPL0BzVuTWzk-11">
          <mxGeometry x="-0.0406" y="-1" relative="1" as="geometry">
            <mxPoint as="offset" />
          </mxGeometry>
        </mxCell>
        <mxCell id="RM2zdnVuNPL0BzVuTWzk-13" value="" style="points=[];aspect=fixed;html=1;align=center;shadow=0;dashed=0;fillColor=#FF6A00;strokeColor=none;shape=mxgraph.alibaba_cloud.log_streaming;" vertex="1" parent="1">
          <mxGeometry x="510" y="121" width="47.400000000000006" height="45.3" as="geometry" />
        </mxCell>
        <mxCell id="RM2zdnVuNPL0BzVuTWzk-19" value="" style="group" vertex="1" connectable="0" parent="1">
          <mxGeometry x="320" y="285" width="120" height="140" as="geometry" />
        </mxCell>
        <mxCell id="RM2zdnVuNPL0BzVuTWzk-18" value="" style="fontColor=#0066CC;verticalAlign=top;verticalLabelPosition=bottom;labelPosition=center;align=center;html=1;outlineConnect=0;fillColor=#CCCCCC;strokeColor=#6881B3;gradientColor=none;gradientDirection=north;strokeWidth=2;shape=mxgraph.networks.video_projector_screen;" vertex="1" parent="RM2zdnVuNPL0BzVuTWzk-19">
          <mxGeometry width="120.00000000000001" height="140" as="geometry" />
        </mxCell>
        <mxCell id="RM2zdnVuNPL0BzVuTWzk-14" value="" style="image;html=1;image=img/lib/clip_art/finance/Pie_Chart_128x128.png" vertex="1" parent="RM2zdnVuNPL0BzVuTWzk-19">
          <mxGeometry x="31.764705882352942" y="15.135135135135137" width="56.47058823529412" height="60.54054054054055" as="geometry" />
        </mxCell>
        <mxCell id="RM2zdnVuNPL0BzVuTWzk-20" value="" style="shape=image;verticalLabelPosition=bottom;verticalAlign=top;imageAspect=0;aspect=fixed;image=data:image/svg+xml,PHN2ZyB4bWxuczp4bGluaz0iaHR0cDovL3d3dy53My5vcmcvMTk5OS94bGluayIgeG1sbnM9Imh0dHA6Ly93d3cudzMub3JnLzIwMDAvc3ZnIiBoZWlnaHQ9IjQ5Ljk5Mzg5NjQ4NDM3NSIgd2lkdGg9IjE4Ny45OTk2MzM3ODkwNjI1IiB2aWV3Qm94PSIwLjM1OTM3NSAwLjMxMDU0Njg3NSAxODcuOTk5NjMzNzg5MDYyNSA0OS45OTM4OTY0ODQzNzUiPjxnIHRyYW5zZm9ybT0idHJhbnNsYXRlKC0xNjM4IC0yMDkzKSI+PGcgZmlsbD0iIzRlNGU0ZSI+PHVzZSB5PSIyMTA2LjIzIiB4PSIxNjg4Ljg3IiB4bGluazpocmVmPSIjQSIvPjx1c2UgeT0iMjEwNi4xOSIgeD0iMTcwNS4zOCIgeGxpbms6aHJlZj0iI0IiLz48dXNlIHk9IjIxMDUuNjciIHg9IjE3MzAuMTgiIHhsaW5rOmhyZWY9IiNDIi8+PHVzZSB5PSIyMTA2LjIxIiB4PSIxNzUyLjk0IiB4bGluazpocmVmPSIjRCIvPjx1c2UgeT0iMjEwMC4wNCIgeD0iMTc3NS44IiB4bGluazpocmVmPSIjRSIvPjx1c2UgeT0iMjEwNS43MSIgeD0iMTc5MS43NSIgeGxpbms6aHJlZj0iI0YiLz48dXNlIHk9IjIxMDUuNzIiIHg9IjE4MTUuNzciIHhsaW5rOmhyZWY9IiNHIi8+PC9nPjx1c2UgeT0iMjA5My4zMSIgeD0iMTY2OS4zIiBmaWxsPSIjNzY3Njc3IiB4bGluazpocmVmPSIjSCIvPjxnIGZpbGw9IiNmMzc3MjYiPjx1c2UgeT0iMjEyMy45OCIgeD0iMTYzOS43NCIgeGxpbms6aHJlZj0iI0kiLz48dXNlIHk9IjIwOTcuNDgiIHg9IjE2MzkuNzMiIHhsaW5rOmhyZWY9IiNKIi8+PC9nPjx1c2UgeT0iMjEzNS44MSIgeD0iMTYzOS44IiBmaWxsPSIjOTg5Nzk4IiB4bGluazpocmVmPSIjSyIvPjx1c2UgeT0iMjA5OC4wNiIgeD0iMTYzOC4zNiIgZmlsbD0iIzZmNzA3MCIgeGxpbms6aHJlZj0iI0wiLz48L2c+PGRlZnM+PHBhdGggZD0iTTUuNjI2IDE3LjkyOGMwIDUuMTQ2LS4zOTMgNi44MjYtMS40MzkgOC4wNjdDMy4wNDQgMjcuMDUgMS41NSAyNy42MzQgMCAyNy42M2wuMzkzIDMuMDYxYzIuNDAyLjAzMyA0LjczMS0uODM1IDYuNTMzLTIuNDM3IDEuODc1LTEuOTUzIDIuNTI5LTQuNjUzIDIuNTI5LTguNzk3VjBINS42MTd2MTcuOTU0bC4wMDktLjAyNnoiIGlkPSJBIi8+PHBhdGggZD0iTTE3Ljc0MSAxNS42MjNsLjE3NCA1Ljg1aC0zLjM1OGwtLjIxOC0zLjUxOWgtLjA4N2E3Ljk2IDcuOTYgMCAwIDEtMi45NTMgMi45NDhjLTEuMjI2LjctMi42MTYgMS4wNTgtNC4wMjUgMS4wMzdDMy45NiAyMS45MzkgMCAyMC4wNzQgMCAxMi41NDRWMGgzLjgzOHYxMS45MDJjMCA0LjA4MiAxLjIyMSA2LjgyNiA0LjcwMSA2LjgyNiAxLjA5Mi0uMDIgMi4xNTMtLjM2NSAzLjA1Mi0uOTkxczEuNTk0LTEuNTA1IDEuOTk5LTIuNTI4Yy4yMzMtLjYzOS4zNTEtMS4zMTYuMzQ5LTEuOTk3Vi4wMThoMy44Mzh2MTUuNjA1aC0uMDM1eiIgaWQ9IkIiLz48cGF0aCBkPSJNLjE3NCA3LjUzNkwwIC40OTloMy40NDVsLjE3NCAzLjY3N2guMDg3YTguMzEgOC4zMSAwIDAgMSAzLjE3MS0zLjEzN0E4LjIyIDguMjIgMCAwIDEgMTEuMi4wMDZjNS4wOTQgMCA4LjkzMiA0LjM5OCA4LjkzMiAxMC45MDggMCA3LjcxNS00LjYxNCAxMS41MjQtOS41OTUgMTEuNTI0YTcuMzMgNy4zMyAwIDAgMS0zLjY4Ny0uODE5IDcuNCA3LjQgMCAwIDEtMi44MDMtMi41NUgzLjk2djExLjY1NkguMTY2VjcuNTAxbC4wMDkuMDM1em0zLjc5NCA1LjcxOGE4Ljg3IDguODcgMCAwIDAgLjE3NCAxLjU5MiA1Ljk4IDUuOTggMCAwIDAgMi4wOTEgMy4yODUgNS44OSA1Ljg5IDAgMCAwIDMuNjU3IDEuMjgxYzQuMDU2IDAgNi40MDItMy4zNjkgNi40MDItOC4yODYgMC00LjMwMi0yLjIyNC03Ljk3OS02LjI3MS03Ljk3OS0xLjM2MS4wMzgtMi42Ny41MzUtMy43MiAxLjQxUzQuNTI0IDYuNjM1IDQuMjMgNy45NzZjLS4xNTQuNTE3LS4yNDIgMS4wNTItLjI2MiAxLjU5MnYzLjY3Ny4wMDl6IiBpZD0iQyIvPjxwYXRoIGQ9Ik00LjE2MSAwbDQuNjE0IDEyLjY3NiAxLjM1MiA0LjM5OGguMDg3bDEuMzUyLTQuNDc4TDE1Ljc1My4wMDloNC4wNTZMMTQuMDYgMTUuMzA2QzExLjMxMyAyMi42NiA5LjQ0NiAyNi40MzQgNi44MyAyOC43MzljLTEuMzIyIDEuMjQtMi45NDMgMi4xMTEtNC43MDEgMi41MjVsLS45NTktMy4yODFjMS4yMy0uNDEzIDIuMzctMS4wNjEgMy4zNTgtMS45MDkgMS4zOTYtMS4xNzYgMi41MDEtMi42NjQgMy4yMjctNC4zNDZhMi44MyAyLjgzIDAgMCAwIC4zMDUtLjkzMmMtLjAzNC0uMzUyLS4xMjMtLjY5Ni0uMjYyLTEuMDIxTDAgLjAwOWg0LjE4N0w0LjE2MSAweiIgaWQ9IkQiLz48cGF0aCBkPSJNNy4wMjIgMHY2LjE1OGg1LjQ4NnYyLjk3M0g3LjAyMlYyMC42OWMwIDIuNjM5Ljc0MSA0LjE3IDIuODc4IDQuMTcuNzUuMDEyIDEuNDk4LS4wNzcgMi4yMjQtLjI2NGwuMTc0IDIuOTI5Yy0xLjA5MS4zODgtMi4yNDUuNTY3LTMuNDAyLjUyOC0uNzY3LjA0Ny0xLjUzNS0uMDc0LTIuMjUxLS4zNTdzLTEuMzYxLS43MTktMS44OTMtMS4yNzljLTEuMDktMS4xNTItMS40ODMtMy4wNjEtMS40ODMtNS41ODZ2LTExLjdIMFY2LjE1OGgzLjI3MVYxLjAxMkw3LjAyMiAweiIgaWQ9IkUiLz48cGF0aCBkPSJNMy42MjkgMTEuOTI4Yy4wODcgNS4yNzggMy40MDIgNy40NTEgNy4yMzEgNy40NTEgMi4wMDIuMDYzIDMuOTkzLS4zMTUgNS44MzUtMS4xMDhsLjY1NCAyLjc4OWMtMi4yMDcuOTM1LTQuNTg1IDEuMzg3LTYuOTc4IDEuMzI4QzMuODgxIDIyLjM4OCAwIDE4LjA0MiAwIDExLjU2OFMzLjc1MSAwIDkuODkxIDBjNi44ODIgMCA4LjcyMiA2LjE1OCA4LjcyMiAxMC4xMDctLjAwNi42MDktLjA1IDEuMjE3LS4xMzEgMS44MjFIMy42NTVoLS4wMjZ6TTE0Ljg3MiA5LjE0Yy4wNDQtMi40ODEtMS4wMDMtNi4zNDItNS4zMTItNi4zNDItMy44ODEgMC01LjU3NCAzLjYzMy01Ljg3OSA2LjM0MkgxNC44OGgtLjAwOXoiIGlkPSJGIi8+PHBhdGggZD0iTS4xNzQgNy4xNzlMMCAuNDg0aDMuMzU4bC4xMzEgNC4yMTRoLjE3NEM0LjYyMyAxLjgxMyA2LjkzNCAwIDkuNDk5IDBjLjM2OC0uMDA1LjczNC4wMzkgMS4wOS4xMzJ2My42NzdjLS40My0uMDk0LS44NjktLjEzOS0xLjMwOC0uMTMyLTIuNzA0IDAtNC42MTQgMi4wODUtNS4xMzcgNS4wMDVhMTEuMTQgMTEuMTQgMCAwIDAtLjE3NCAxLjgyMXYxMS40MzZILjE3NFY3LjE3OXoiIGlkPSJHIi8+PHBhdGggZD0iTTUuODk0IDIuODQ0Yy4wMjUuNTg4LS4xMjMgMS4xNy0uNDI1IDEuNjcycy0uNzQ2LjkwNC0xLjI3NSAxLjE1Mi0xLjExOS4zMzMtMS42OTUuMjQzYTIuOTQgMi45NCAwIDAgMS0xLjU0My0uNzQ4IDIuOTggMi45OCAwIDAgMS0uODcxLTEuNDg2Yy0uMTM4LS41NzEtLjEwNS0xLjE3MS4wOTUtMS43MjRBMi45NyAyLjk3IDAgMCAxIDEuMjA4LjU3NCAyLjkzIDIuOTMgMCAwIDEgMi44MjMuMDAzYy43ODEtLjAzMyAxLjU0Mi4yNDcgMi4xMTguNzhzLjkxOCAxLjI3NC45NTIgMi4wNjF6IiBpZD0iSCIvPjxwYXRoIGQ9Ik0xOC4yNjUgNy4xMzRDMTAuNDE1IDcuMTM0IDMuNTU5IDQuMjU4IDAgMGMxLjMyNSAzLjgyIDMuNzk2IDcuMTMxIDcuMDY5IDkuNDczczcuMTg3IDMuNiAxMS4yIDMuNiA3LjkyNy0xLjI1OCAxMS4yLTMuNlMzNS4yMTMgMy44MiAzNi41MzggMGMtMy41NjcgNC4yNTgtMTAuNDIzIDcuMTM0LTE4LjI3MyA3LjEzNHoiIGlkPSJJIi8+PHBhdGggZD0iTTE4LjI3MyA1LjkzOWM3Ljg1IDAgMTQuNzA2IDIuODc3IDE4LjI2NSA3LjEzNC0xLjMyNS0zLjgyLTMuNzk2LTcuMTMxLTcuMDY5LTkuNDczUzIyLjI4MiAwIDE4LjI2OSAwcy03LjkyNyAxLjI1OC0xMS4yIDMuNlMxLjMyNSA5LjI1MyAwIDEzLjA3M2MzLjU2Ny00LjI0OSAxMC40MjMtNy4xMzQgMTguMjczLTcuMTM0eiIgaWQ9IkoiLz48cGF0aCBkPSJNNy40MjggMy41ODNhMy43NyAzLjc3IDAgMCAxLS41MzYgMi4xMDljLS4zODIuNjM0LS45NDEgMS4xMzktMS42MDggMS40NTJzLTEuNDEuNDItMi4xMzcuMzA2LTEuNDA0LS40NDItMS45NDUtLjk0NFMuMjc5IDUuMzUzLjEwNSA0LjYzMmEzLjc4IDMuNzggMCAwIDEgLjEyMi0yLjE3M0MuNDggMS43NjIuOTMyIDEuMTU3IDEuNTI2LjcyUzIuODI5LjAzMyAzLjU2NC4wMDNjLjk4My0uMDQxIDEuOTQxLjMxNCAyLjY2Ni45ODVhMy43NiAzLjc2IDAgMCAxIDEuMTk4IDIuNTk2aDB6IiBpZD0iSyIvPjxwYXRoIGQ9Ik0yLjI3NSA0LjM5NmMtLjQzMS4wMTktLjg1OC0uMDkyLTEuMjI3LS4zMThzLS42NjMtLjU1Ny0uODQ1LS45NTItLjI0NC0uODM1LS4xNzgtMS4yNjUuMjU3LS44MzEuNTQ5LTEuMTUxLjY3Mi0uNTQ2IDEuMDkxLS42NDkuODU5LS4wNzggMS4yNjUuMDcyLjc1Ny40MTcgMS4wMTEuNzY5YTIuMjEgMi4yMSAwIDAgMS0uMTU2IDIuNzg0Yy0uMzkxLjQyOS0uOTM0LjY4NC0xLjUxMS43MDloMHoiIGlkPSJMIi8+PC9kZWZzPjwvc3ZnPg==;" vertex="1" parent="1">
          <mxGeometry x="800" y="159.50000000000003" width="188" height="50" as="geometry" />
        </mxCell>
        <mxCell id="RM2zdnVuNPL0BzVuTWzk-27" style="edgeStyle=orthogonalEdgeStyle;rounded=0;orthogonalLoop=1;jettySize=auto;html=1;" edge="1" parent="1" source="RM2zdnVuNPL0BzVuTWzk-21" target="RM2zdnVuNPL0BzVuTWzk-18">
          <mxGeometry relative="1" as="geometry" />
        </mxCell>
        <mxCell id="RM2zdnVuNPL0BzVuTWzk-28" value="Plotly Charts" style="edgeLabel;html=1;align=center;verticalAlign=middle;resizable=0;points=[];" vertex="1" connectable="0" parent="RM2zdnVuNPL0BzVuTWzk-27">
          <mxGeometry x="-0.0392" y="3" relative="1" as="geometry">
            <mxPoint as="offset" />
          </mxGeometry>
        </mxCell>
        <mxCell id="RM2zdnVuNPL0BzVuTWzk-21" value="" style="shape=image;verticalLabelPosition=bottom;verticalAlign=top;imageAspect=0;aspect=fixed;image=data:image/svg+xml,PHN2ZyB4bWxucz0iaHR0cDovL3d3dy53My5vcmcvMjAwMC9zdmciIGNsYXNzPSJtYXgtaC01IHctYXV0byIgdmlld0JveD0iMC43NDkxNDIxNjk5NTIzOTI2IC0wLjAwMDc0OTgyNjQzMTI3NDQxNDEgMzAwLjAwMDE1MjU4Nzg5MDYgMTYzLjE0OTAxNzMzMzk4NDM4IiBhbHQ9IlN0cmVhbWxpdCBMb2dvLiBDbGljayB0byBnbyBiYWNrIHRvIHRoZSBob21lIHBhZ2UuIiBmaWxsPSJub25lIiBoZWlnaHQ9IjE3Ljc5ODA3NDYxODI1Mjg0IiB3aWR0aD0iMzEuODkzNzAzOTI5NjA5NjM2Ij48cGF0aCBmaWxsPSIjRkY0QjRCIiBkPSJNMTUwLjczMSAxMDEuNTQ3bC01Mi41OTItMjcuOC05MS4yOTItNDguMjVjLS4wODQtLjA4My0uMjUtLjA4My0uMzM0LS4wODMtMy4zMzMtMS41ODQtNi43NSAxLjc1LTUuNSA1LjA4M0w0Ny41MyAxNDkuMTM5bC4wMDguMDI1Yy4wNS4xMTcuMDkyLjIzMy4xNDIuMzUgMS45MDkgNC40MjUgNi4wNzUgNy4xNTggMTAuNjA5IDguMjMzLjM4My4wODQuNjU3LjE1OSAxLjExNy4yNTEuNDU5LjEwMiAxLjEuMjQxIDEuNjUuMjgzLjA5LjAwOC4xNzQuMDA4LjI2Ni4wMTZoLjA2N2MuMDY2LjAwOS4xMzMuMDA5LjIuMDE3aC4wOTFjLjA1OS4wMDguMTI1LjAwOC4xODQuMDA4aC4xMDhjLjA2Ny4wMDkuMTMzLjAwOS4yLjAwOWE4MTcuNzI4IDgxNy43MjggMCAwMDE3Ny4yNTkgMGMuNzA4IDAgMS40LS4wMzQgMi4wNjYtLjFsLjYzNC0uMDc1Yy4wMjUtLjAwOS4wNTgtLjAwOS4wODMtLjAxNy4xNDItLjAxNy4yODMtLjA0Mi40MjUtLjA2Ny4yMDgtLjAyNS40MTctLjA2Ni42MjUtLjEwOC40MTctLjA5Mi42MDYtLjE1OCAxLjE3Mi0uMzUzLjU2NS0uMTk0IDEuNTA0LS41MzQgMi4wOTEtLjgxNy41ODgtLjI4My45OTUtLjU1NSAxLjQ4Ny0uODYzYTI2LjU2NiAyNi41NjYgMCAwMDEuNzc0LTEuMjE2Yy4yNTMtLjE5NC40MjYtLjMxOC42MDktLjQ5M2wtLjEtLjA1OC05OS41NjYtNTIuNjE3eiIvPjxwYXRoIGZpbGw9IiM3RDM1M0IiIGQ9Ik0yOTQuNzY2IDI1LjQ5OGgtLjA4M2wtOTEuMzI2IDQ4LjI1IDUwLjc2NyA3NS42MDkgNDYuNC0xMTguODU5di0uMTY3YzEuMTY3LTMuNS0yLjQxNi02LjY2Ni01Ljc1OC00LjgzMyIvPjxwYXRoIGZpbGw9IiNCRDQwNDMiIGQ9Ik0xNTUuNTk4IDIuNTU2Yy0yLjMzNC0zLjQwOS03LjQxNy0zLjQwOS05LjY2NyAwTDk4LjEzOSA3My43NDhsNTIuNTkyIDI3LjggOTkuNjY3IDUyLjY3NGMuNjI2LS42MTMgMS4xMjgtMS4yMSAxLjY1OC0xLjg0MWEyMC45OCAyMC45OCAwIDAwMi4wNjctMy4wMjVsLTUwLjc2Ny03NS42MDgtNDcuNzU4LTcxLjE5MnoiLz48L3N2Zz4=;" vertex="1" parent="1">
          <mxGeometry x="557.4" y="326.31" width="102" height="57.38" as="geometry" />
        </mxCell>
      </root>
    </mxGraphModel>
  </diagram>
</mxfile>
